<svg xmlns="http://www.w3.org/2000/svg" viewBox="0 0 32 32" width="32" height="32">
  <defs>
    <linearGradient id="grad" x1="0%" y1="0%" x2="100%" y2="100%">
      <stop offset="0%" style="stop-color:#8b5cf6"/>
      <stop offset="100%" style="stop-color:#06b6d4"/>
    </linearGradient>
    <linearGradient id="arrow" x1="0%" y1="0%" x2="100%" y2="0%">
      <stop offset="0%" style="stop-color:#8b5cf6"/>
      <stop offset="100%" style="stop-color:#06b6d4"/>
    </linearGradient>
  </defs>
  <!-- Infinity loop representing CI/CD -->
  <path d="M16 10c-3 0-6 2-6 5s3 5 6 5 6-2 6-5-3-5-6-5z" fill="none" stroke="url(#grad)" stroke-width="2.5" stroke-linecap="round"/>
  <path d="M10 15c-3 0-6 2-6 5s3 5 6 5 6-2 6-5-3-5-6-5z" fill="none" stroke="url(#grad)" stroke-width="2.5" stroke-linecap="round"/>
  <path d="M22 15c3 0 6 2 6 5s-3 5-6 5-6-2-6-5 3-5 6-5z" fill="none" stroke="url(#grad)" stroke-width="2.5" stroke-linecap="round"/>
  <!-- Code bracket detail -->
  <path d="M12 11l-2 2 2 2" fill="none" stroke="url(#grad)" stroke-width="1.5" stroke-linecap="round" stroke-linejoin="round"/>
  <!-- Deployment arrow detail -->
  <path d="M20 18l2-2-2-2" fill="none" stroke="url(#grad)" stroke-width="1.5" stroke-linecap="round" stroke-linejoin="round"/>
</svg>
